<?xml version="1.0" encoding="UTF-8"?>
<svg xmlns="http://www.w3.org/2000/svg" xmlns:xlink="http://www.w3.org/1999/xlink" width="145pt" height="32pt" viewBox="0 0 145 32" version="1.1">
<defs>
<clipPath id="clip1">
  <path d="M 2.898438 0 L 142.101562 0 C 143.703125 0 145 1.300781 145 2.910156 L 145 29.089844 C 145 30.699219 143.703125 32 142.101562 32 L 2.898438 32 C 1.296875 32 0 30.699219 0 29.089844 L 0 2.910156 C 0 1.300781 1.296875 0 2.898438 0 Z M 2.898438 0 "/>
</clipPath>
<clipPath id="clip2">
  <path d="M 52 0 L 93 0 L 93 32 L 52 32 Z M 52 0 "/>
</clipPath>
<clipPath id="clip3">
  <path d="M 2.898438 0 L 142.101562 0 C 143.703125 0 145 1.300781 145 2.910156 L 145 29.089844 C 145 30.699219 143.703125 32 142.101562 32 L 2.898438 32 C 1.296875 32 0 30.699219 0 29.089844 L 0 2.910156 C 0 1.300781 1.296875 0 2.898438 0 Z M 2.898438 0 "/>
</clipPath>
<clipPath id="clip4">
  <path d="M 56 0 L 89 0 L 89 32 L 56 32 Z M 56 0 "/>
</clipPath>
<clipPath id="clip5">
  <path d="M 2.898438 0 L 142.101562 0 C 143.703125 0 145 1.300781 145 2.910156 L 145 29.089844 C 145 30.699219 143.703125 32 142.101562 32 L 2.898438 32 C 1.296875 32 0 30.699219 0 29.089844 L 0 2.910156 C 0 1.300781 1.296875 0 2.898438 0 Z M 2.898438 0 "/>
</clipPath>
<clipPath id="clip6">
  <path d="M 60 4 L 85 4 L 85 28 L 60 28 Z M 60 4 "/>
</clipPath>
<clipPath id="clip7">
  <path d="M 2.898438 0 L 142.101562 0 C 143.703125 0 145 1.300781 145 2.910156 L 145 29.089844 C 145 30.699219 143.703125 32 142.101562 32 L 2.898438 32 C 1.296875 32 0 30.699219 0 29.089844 L 0 2.910156 C 0 1.300781 1.296875 0 2.898438 0 Z M 2.898438 0 "/>
</clipPath>
<clipPath id="clip8">
  <path d="M 64 8 L 81 8 L 81 24 L 64 24 Z M 64 8 "/>
</clipPath>
<clipPath id="clip9">
  <path d="M 2.898438 0 L 142.101562 0 C 143.703125 0 145 1.300781 145 2.910156 L 145 29.089844 C 145 30.699219 143.703125 32 142.101562 32 L 2.898438 32 C 1.296875 32 0 30.699219 0 29.089844 L 0 2.910156 C 0 1.300781 1.296875 0 2.898438 0 Z M 2.898438 0 "/>
</clipPath>
<clipPath id="clip10">
  <path d="M 17 10 L 89 10 L 89 24 L 17 24 Z M 17 10 "/>
</clipPath>
<clipPath id="clip11">
  <path d="M 2.898438 0 L 142.101562 0 C 143.703125 0 145 1.300781 145 2.910156 L 145 29.089844 C 145 30.699219 143.703125 32 142.101562 32 L 2.898438 32 C 1.296875 32 0 30.699219 0 29.089844 L 0 2.910156 C 0 1.300781 1.296875 0 2.898438 0 Z M 2.898438 0 "/>
</clipPath>
<clipPath id="clip12">
  <path d="M 93 11 L 128 11 L 128 21 L 93 21 Z M 93 11 "/>
</clipPath>
<clipPath id="clip13">
  <path d="M 2.898438 0 L 142.101562 0 C 143.703125 0 145 1.300781 145 2.910156 L 145 29.089844 C 145 30.699219 143.703125 32 142.101562 32 L 2.898438 32 C 1.296875 32 0 30.699219 0 29.089844 L 0 2.910156 C 0 1.300781 1.296875 0 2.898438 0 Z M 2.898438 0 "/>
</clipPath>
</defs>
<g id="surface1">
<g clip-path="url(#clip1)" clip-rule="nonzero">
<path style=" stroke:none;fill-rule:nonzero;fill:rgb(100%,100%,100%);fill-opacity:1;" d="M 2.898438 0 L 142.101562 0 C 143.703125 0 145 1.300781 145 2.910156 L 145 29.089844 C 145 30.699219 143.703125 32 142.101562 32 L 2.898438 32 C 1.296875 32 0 30.699219 0 29.089844 L 0 2.910156 C 0 1.300781 1.296875 0 2.898438 0 Z M 2.898438 0 "/>
<rect x="0" y="0" width="145" height="32" style="fill:rgb(83.529412%,22.745098%,63.529412%);fill-opacity:1;stroke:none;"/>
</g>
<g clip-path="url(#clip2)" clip-rule="nonzero">
<g clip-path="url(#clip3)" clip-rule="nonzero">
<path style=" stroke:none;fill-rule:nonzero;fill:rgb(86.666667%,25.882353%,66.666667%);fill-opacity:1;" d="M 72.425781 -3.636719 C 83.277344 -3.636719 92.074219 5.1875 92.074219 16.074219 C 92.074219 26.957031 83.277344 35.78125 72.425781 35.78125 C 61.578125 35.78125 52.78125 26.957031 52.78125 16.074219 C 52.78125 5.1875 61.578125 -3.636719 72.425781 -3.636719 Z M 72.425781 -3.636719 "/>
</g>
</g>
<g clip-path="url(#clip4)" clip-rule="nonzero">
<g clip-path="url(#clip5)" clip-rule="nonzero">
<path style=" stroke:none;fill-rule:nonzero;fill:rgb(80.392157%,19.607843%,60.392157%);fill-opacity:1;" d="M 72.425781 0.304688 C 81.109375 0.304688 88.144531 7.476562 88.144531 16.320312 C 88.144531 25.164062 81.109375 32.332031 72.425781 32.332031 C 63.746094 32.332031 56.710938 25.164062 56.710938 16.320312 C 56.710938 7.476562 63.746094 0.304688 72.425781 0.304688 Z M 72.425781 0.304688 "/>
</g>
</g>
<g clip-path="url(#clip6)" clip-rule="nonzero">
<g clip-path="url(#clip7)" clip-rule="nonzero">
<path style=" stroke:none;fill-rule:nonzero;fill:rgb(74.509804%,13.72549%,54.509804%);fill-opacity:1;" d="M 72.425781 4.246094 C 78.9375 4.246094 84.214844 9.542969 84.214844 16.074219 C 84.214844 22.605469 78.9375 27.898438 72.425781 27.898438 C 65.917969 27.898438 60.640625 22.605469 60.640625 16.074219 C 60.640625 9.542969 65.917969 4.246094 72.425781 4.246094 Z M 72.425781 4.246094 "/>
</g>
</g>
<g clip-path="url(#clip8)" clip-rule="nonzero">
<g clip-path="url(#clip9)" clip-rule="nonzero">
<path style=" stroke:none;fill-rule:nonzero;fill:rgb(67.45098%,6.666667%,47.45098%);fill-opacity:1;" d="M 72.425781 8.1875 C 76.769531 8.1875 80.285156 11.71875 80.285156 16.074219 C 80.285156 20.425781 76.769531 23.957031 72.425781 23.957031 C 68.085938 23.957031 64.570312 20.425781 64.570312 16.074219 C 64.570312 11.71875 68.085938 8.1875 72.425781 8.1875 Z M 72.425781 8.1875 "/>
</g>
</g>
<g clip-path="url(#clip10)" clip-rule="nonzero">
<g clip-path="url(#clip11)" clip-rule="nonzero">
<path style=" stroke:none;fill-rule:nonzero;fill:rgb(100%,100%,100%);fill-opacity:0.8;" d="M 17.953125 20.800781 L 21.863281 20.800781 C 23.664062 20.800781 25.023438 20.339844 25.925781 19.402344 C 26.84375 18.464844 27.300781 17.375 27.300781 16.09375 C 27.300781 14.816406 26.84375 13.710938 25.925781 12.773438 C 25.023438 11.835938 23.664062 11.375 21.863281 11.375 L 17.953125 11.375 Z M 25.515625 16.09375 C 25.515625 17.015625 25.210938 17.800781 24.597656 18.449219 C 24.003906 19.078125 23.085938 19.402344 21.863281 19.402344 L 19.6875 19.402344 L 19.6875 12.773438 L 21.863281 12.773438 C 23.085938 12.773438 24.003906 13.09375 24.597656 13.726562 C 25.210938 14.375 25.515625 15.15625 25.515625 16.09375 Z M 28.695312 16.914062 C 28.695312 19.28125 30.1875 20.96875 32.789062 20.96875 C 34.523438 20.96875 35.914062 20.136719 36.527344 18.566406 L 34.609375 18.566406 C 34.183594 19.230469 33.589844 19.574219 32.789062 19.574219 C 31.464844 19.574219 30.613281 18.71875 30.460938 17.390625 L 36.664062 17.390625 L 36.664062 16.914062 C 36.664062 14.578125 35.101562 12.855469 32.6875 12.855469 C 30.257812 12.855469 28.695312 14.527344 28.695312 16.914062 Z M 34.878906 16.265625 L 30.476562 16.265625 C 30.664062 15.089844 31.414062 14.253906 32.6875 14.253906 C 33.925781 14.253906 34.691406 15.074219 34.878906 16.265625 Z M 46.535156 16.914062 C 46.535156 14.628906 45.246094 12.855469 42.882812 12.855469 C 41.507812 12.855469 40.84375 13.230469 40.164062 14.273438 L 40.097656 13.027344 L 38.582031 13.027344 L 38.582031 23.59375 L 40.28125 23.59375 L 40.28125 19.742188 C 40.84375 20.59375 41.660156 20.96875 42.882812 20.96875 C 45.210938 20.96875 46.535156 19.265625 46.535156 16.914062 Z M 40.28125 16.914062 C 40.28125 15.429688 41.0625 14.203125 42.578125 14.203125 C 44.039062 14.203125 44.835938 15.414062 44.835938 16.914062 C 44.835938 18.464844 44.054688 19.625 42.578125 19.625 C 41.117188 19.625 40.28125 18.449219 40.28125 16.914062 Z M 50.15625 10.148438 L 48.457031 10.148438 L 48.457031 20.800781 L 50.15625 20.800781 Z M 52.058594 16.914062 C 52.058594 18.089844 52.433594 19.0625 53.164062 19.828125 C 53.894531 20.59375 54.914062 20.96875 56.1875 20.96875 L 56.203125 20.96875 C 57.480469 20.96875 58.480469 20.59375 59.210938 19.828125 C 59.941406 19.0625 60.316406 18.089844 60.316406 16.914062 C 60.316406 15.738281 59.941406 14.765625 59.210938 14 C 58.480469 13.230469 57.460938 12.855469 56.1875 12.855469 C 54.914062 12.855469 53.894531 13.230469 53.164062 14 C 52.433594 14.765625 52.058594 15.738281 52.058594 16.914062 Z M 58.582031 16.914062 C 58.582031 18.398438 57.734375 19.574219 56.1875 19.574219 C 54.710938 19.574219 53.792969 18.449219 53.792969 16.914062 C 53.792969 15.398438 54.726562 14.253906 56.1875 14.253906 C 57.664062 14.253906 58.582031 15.398438 58.582031 16.914062 Z M 66.128906 20.800781 L 69.59375 13.027344 L 67.808594 13.027344 L 65.363281 18.941406 L 62.933594 13.027344 L 61.0625 13.027344 L 64.53125 20.765625 C 64.070312 21.773438 63.832031 22.265625 63.050781 22.265625 C 62.660156 22.265625 62.441406 22.25 62.082031 22.148438 L 62.082031 23.527344 C 62.390625 23.648438 62.832031 23.699219 63.1875 23.699219 C 63.886719 23.699219 64.445312 23.460938 64.835938 23 C 65.246094 22.523438 65.667969 21.789062 66.128906 20.800781 Z M 76.679688 17.917969 L 76.679688 14.304688 L 78.632812 14.304688 L 78.632812 13.027344 L 76.679688 13.027344 L 76.679688 11.203125 L 74.980469 11.203125 L 74.980469 13.027344 L 73.722656 13.027344 L 73.722656 14.304688 L 74.980469 14.304688 L 74.980469 17.917969 C 74.980469 19.0625 75.21875 19.828125 75.710938 20.238281 C 76.203125 20.648438 76.902344 20.851562 77.800781 20.851562 C 78.089844 20.851562 78.34375 20.835938 78.566406 20.78125 L 78.890625 20.714844 L 78.890625 19.367188 L 78.566406 19.402344 C 78.34375 19.4375 78.089844 19.453125 77.800781 19.453125 C 76.882812 19.453125 76.679688 18.976562 76.679688 17.917969 Z M 79.875 16.914062 C 79.875 18.089844 80.25 19.0625 80.980469 19.828125 C 81.710938 20.59375 82.730469 20.96875 84.003906 20.96875 L 84.019531 20.96875 C 85.296875 20.96875 86.296875 20.59375 87.027344 19.828125 C 87.757812 19.0625 88.132812 18.089844 88.132812 16.914062 C 88.132812 15.738281 87.757812 14.765625 87.027344 14 C 86.296875 13.230469 85.277344 12.855469 84.003906 12.855469 C 82.730469 12.855469 81.710938 13.230469 80.980469 14 C 80.25 14.765625 79.875 15.738281 79.875 16.914062 Z M 86.398438 16.914062 C 86.398438 18.398438 85.550781 19.574219 84.003906 19.574219 C 82.527344 19.574219 81.609375 18.449219 81.609375 16.914062 C 81.609375 15.398438 82.542969 14.253906 84.003906 14.253906 C 85.480469 14.253906 86.398438 15.398438 86.398438 16.914062 Z M 86.398438 16.914062 "/>
</g>
</g>
<g clip-path="url(#clip12)" clip-rule="nonzero">
<g clip-path="url(#clip13)" clip-rule="nonzero">
<path style=" stroke:none;fill-rule:nonzero;fill:rgb(100%,100%,100%);fill-opacity:1;" d="M 93.535156 20.800781 L 97.445312 20.800781 C 99.246094 20.800781 100.605469 20.339844 101.503906 19.402344 C 102.421875 18.464844 102.882812 17.375 102.882812 16.09375 C 102.882812 14.816406 102.421875 13.710938 101.503906 12.773438 C 100.605469 11.835938 99.246094 11.375 97.445312 11.375 L 93.535156 11.375 Z M 101.097656 16.09375 C 101.097656 17.015625 100.792969 17.800781 100.179688 18.449219 C 99.585938 19.078125 98.667969 19.402344 97.445312 19.402344 L 95.269531 19.402344 L 95.269531 12.773438 L 97.445312 12.773438 C 98.667969 12.773438 99.585938 13.09375 100.179688 13.726562 C 100.792969 14.375 101.097656 15.15625 101.097656 16.09375 Z M 104.277344 16.914062 C 104.277344 19.28125 105.769531 20.96875 108.371094 20.96875 C 110.105469 20.96875 111.496094 20.136719 112.109375 18.566406 L 110.1875 18.566406 C 109.765625 19.230469 109.167969 19.574219 108.371094 19.574219 C 107.046875 19.574219 106.195312 18.71875 106.042969 17.390625 L 112.246094 17.390625 L 112.246094 16.914062 C 112.246094 14.578125 110.679688 12.855469 108.269531 12.855469 C 105.839844 12.855469 104.277344 14.527344 104.277344 16.914062 Z M 110.460938 16.265625 L 106.058594 16.265625 C 106.246094 15.089844 106.996094 14.253906 108.269531 14.253906 C 109.507812 14.253906 110.273438 15.074219 110.460938 16.265625 Z M 116.203125 17.917969 L 116.203125 14.304688 L 118.15625 14.304688 L 118.15625 13.027344 L 116.203125 13.027344 L 116.203125 11.203125 L 114.503906 11.203125 L 114.503906 13.027344 L 113.246094 13.027344 L 113.246094 14.304688 L 114.503906 14.304688 L 114.503906 17.917969 C 114.503906 19.0625 114.742188 19.828125 115.234375 20.238281 C 115.726562 20.648438 116.425781 20.851562 117.324219 20.851562 C 117.613281 20.851562 117.871094 20.835938 118.089844 20.78125 L 118.414062 20.714844 L 118.414062 19.367188 L 118.089844 19.402344 C 117.871094 19.4375 117.613281 19.453125 117.324219 19.453125 C 116.40625 19.453125 116.203125 18.976562 116.203125 17.917969 Z M 123.492188 12.90625 C 122.355469 12.90625 121.472656 13.148438 120.859375 13.640625 C 120.230469 14.136719 119.925781 14.730469 119.925781 15.429688 L 121.660156 15.429688 C 121.660156 14.613281 122.574219 14.304688 123.492188 14.304688 C 124.648438 14.304688 125.363281 14.714844 125.363281 15.789062 L 125.363281 16.265625 L 123.273438 16.265625 C 121.214844 16.265625 119.621094 16.792969 119.621094 18.53125 C 119.621094 20.136719 120.84375 20.96875 122.660156 20.96875 C 123.832031 20.96875 124.667969 20.679688 125.160156 20.101562 L 125.398438 19.8125 C 125.398438 20.136719 125.53125 20.628906 125.582031 20.800781 L 127.28125 20.800781 L 127.28125 20.664062 L 127.164062 20.289062 C 127.097656 20.03125 127.0625 19.640625 127.0625 19.09375 L 127.0625 16.09375 C 127.0625 13.8125 125.769531 12.90625 123.492188 12.90625 Z M 125.363281 17.40625 C 125.363281 18.960938 124.582031 19.761719 123.101562 19.761719 C 122.132812 19.761719 121.351562 19.4375 121.351562 18.617188 C 121.351562 17.679688 122.203125 17.40625 123.273438 17.390625 Z M 125.363281 17.40625 "/>
</g>
</g>
</g>
</svg>
